<svg xmlns="http://www.w3.org/2000/svg" xmlns:xlink="http://www.w3.org/1999/xlink" viewBox="0 0 1375 500"><defs><style>.cls-1{fill:url(#linear-gradient);}.cls-2{fill:#666;}</style><linearGradient id="linear-gradient" x1="2.5" y1="250" x2="1372.5" y2="250" gradientUnits="userSpaceOnUse"><stop offset="0" stop-color="#ffaafa"/><stop offset="1" stop-color="#8aabff"/></linearGradient></defs><g id="Layer_2" data-name="Layer 2"><g id="Layer_1-2" data-name="Layer 1"><path class="cls-1" d="M160.4,497.5a127.51,127.51,0,0,0-35.4-250,122.5,122.5,0,0,1,0-245H1125A247.5,247.5,0,0,1,1300,425a245.87,245.87,0,0,1-175,72.49Z"/><path class="cls-2" d="M1125,5a245.07,245.07,0,0,1,95.36,470.75A243.5,243.5,0,0,1,1125,495H175a130.2,130.2,0,0,0,80-120c0-71.68-58.32-130-130-130A120,120,0,0,1,40.15,40.15,119.19,119.19,0,0,1,125,5H1125m0-5H125a125,125,0,0,0,0,250,125,125,0,0,1,0,250H1125c138.07,0,250-111.93,250-250S1263.07,0,1125,0Z"/></g></g></svg>