<svg xmlns="http://www.w3.org/2000/svg" xmlns:xlink="http://www.w3.org/1999/xlink" viewBox="0 0 2500 500"><defs><style>.cls-1{fill:url(#linear-gradient);}.cls-2{fill:#666;}.cls-3{fill:url(#linear-gradient-2);}</style><linearGradient id="linear-gradient" x1="1127.5" y1="250" x2="2497.5" y2="250" gradientUnits="userSpaceOnUse"><stop offset="0" stop-color="#ffaafa"/><stop offset="1" stop-color="#8aabff"/></linearGradient><linearGradient id="linear-gradient-2" x1="-5397.5" y1="2508" x2="-4027.5" y2="2508" gradientTransform="translate(-4025 2758) rotate(180)" xlink:href="#linear-gradient"/></defs><g id="Layer_2" data-name="Layer 2"><g id="Layer_1-2" data-name="Layer 1"><path class="cls-1" d="M1285.4,497.5a127.51,127.51,0,0,0-35.4-250,122.5,122.5,0,0,1,0-245H2250A247.5,247.5,0,0,1,2425,425a245.87,245.87,0,0,1-175,72.49Z"/><path class="cls-2" d="M2250,5a245.07,245.07,0,0,1,95.36,470.75A243.5,243.5,0,0,1,2250,495H1300a130.2,130.2,0,0,0,80-120c0-71.68-58.32-130-130-130a120,120,0,0,1-84.85-204.85A119.19,119.19,0,0,1,1250,5H2250m0-5H1250a125,125,0,0,0,0,250,125,125,0,0,1,0,250H2250c138.07,0,250-111.93,250-250S2388.07,0,2250,0Z"/><path class="cls-3" d="M250,497.5A247.5,247.5,0,0,1,75,75,245.87,245.87,0,0,1,250,2.5h964.6a127.51,127.51,0,0,0,35.4,250,122.5,122.5,0,0,1,0,245Z"/><path class="cls-2" d="M1200,5a130.2,130.2,0,0,0-80,120c0,71.68,58.32,130,130,130a120,120,0,0,1,0,240H250A245.07,245.07,0,0,1,154.64,24.25,243.5,243.5,0,0,1,250,5h950m50-5H250C111.93,0,0,111.93,0,250S111.93,500,250,500H1250a125,125,0,0,0,0-250,125,125,0,0,1,0-250Z"/></g></g></svg>