<svg xmlns="http://www.w3.org/2000/svg" xmlns:xlink="http://www.w3.org/1999/xlink" viewBox="0 0 1375 500"><defs><style>.cls-1{fill:url(#linear-gradient);}.cls-2{fill:#666;}</style><linearGradient id="linear-gradient" x1="-1025.5" y1="712" x2="344.5" y2="712" gradientTransform="translate(347 962) rotate(180)" gradientUnits="userSpaceOnUse"><stop offset="0" stop-color="#ffaafa"/><stop offset="1" stop-color="#8aabff"/></linearGradient></defs><g id="Layer_2" data-name="Layer 2"><g id="Layer_1-2" data-name="Layer 1"><path class="cls-1" d="M250,497.5A247.5,247.5,0,0,1,75,75,245.87,245.87,0,0,1,250,2.5h964.6a127.51,127.51,0,0,0,35.4,250,122.5,122.5,0,0,1,0,245Z"/><path class="cls-2" d="M1200,5a130.2,130.2,0,0,0-80,120c0,71.68,58.32,130,130,130a120,120,0,0,1,0,240H250A245.07,245.07,0,0,1,154.64,24.25,243.5,243.5,0,0,1,250,5h950m50-5H250C111.93,0,0,111.93,0,250S111.93,500,250,500H1250a125,125,0,0,0,0-250,125,125,0,0,1,0-250Z"/></g></g></svg>