<svg xmlns="http://www.w3.org/2000/svg" xmlns:xlink="http://www.w3.org/1999/xlink" viewBox="0 0 500 500"><defs><style>.cls-1{fill:#fff;}.cls-2{fill:url(#linear-gradient);}.cls-3{fill:url(#linear-gradient-2);}</style><linearGradient id="linear-gradient" x1="208.33" y1="375" x2="291.67" y2="375" gradientUnits="userSpaceOnUse"><stop offset="0" stop-color="#eea2a2"/><stop offset="0.19" stop-color="#bbc1bf"/><stop offset="0.42" stop-color="#57c6e1"/><stop offset="0.79" stop-color="#b49fda"/><stop offset="1" stop-color="#7ac5d8"/></linearGradient><linearGradient id="linear-gradient-2" x1="208.33" y1="125" x2="291.67" y2="125" xlink:href="#linear-gradient"/></defs><g id="Layer_2" data-name="Layer 2"><g id="Layer_1-2" data-name="Layer 1"><path class="cls-1" d="M251.62,0h-3.24C111.05.88,0,112.47,0,250S111.05,499.12,248.38,500A125,125,0,0,1,250,250,125,125,0,0,0,251.62,0ZM250,166.67A41.67,41.67,0,1,1,291.67,125,41.67,41.67,0,0,1,250,166.67Z"/><path d="M251.62,0A125,125,0,0,1,250,250a125,125,0,0,0-1.62,250h3.24C389,499.12,500,387.53,500,250S389,.88,251.62,0ZM250,416.67A41.67,41.67,0,1,1,291.67,375,41.67,41.67,0,0,1,250,416.67Z"/><circle class="cls-2" cx="250" cy="375" r="41.67"/><circle class="cls-3" cx="250" cy="125" r="41.67"/></g></g></svg>