<svg xmlns="http://www.w3.org/2000/svg" viewBox="0 0 500 500"><defs><style>.cls-1{fill:#fff;}</style></defs><g id="Layer_2" data-name="Layer 2"><g id="Layer_1-2" data-name="Layer 1"><path class="cls-1" d="M251.62,0h-3.24C111.05.88,0,112.47,0,250S111.05,499.12,248.38,500A125,125,0,0,1,250,250,125,125,0,0,0,251.62,0ZM250,166.67A41.67,41.67,0,1,1,291.67,125,41.67,41.67,0,0,1,250,166.67Z"/><path d="M251.62,0A125,125,0,0,1,250,250a125,125,0,0,0-1.62,250h3.24C389,499.12,500,387.53,500,250S389,.88,251.62,0ZM250,416.67A41.67,41.67,0,1,1,291.67,375,41.67,41.67,0,0,1,250,416.67Z"/></g></g></svg>