<?xml version="1.0" encoding="utf-8"?>
<!-- Generator: Adobe Illustrator 26.0.0, SVG Export Plug-In . SVG Version: 6.00 Build 0)  -->
<svg version="1.1" id="Layer_1" xmlns="http://www.w3.org/2000/svg" xmlns:xlink="http://www.w3.org/1999/xlink" x="0px" y="0px"
	 viewBox="0 0 1920 1080" style="enable-background:new 0 0 1920 1080;" xml:space="preserve">
<style type="text/css">
	.st0{fill:url(#SVGID_1_);}
	.st1{fill:#666666;}
	.st2{fill:url(#SVGID_00000129894459643162698630000004851722946774835333_);}
</style>
<g>
	<linearGradient id="SVGID_1_" gradientUnits="userSpaceOnUse" x1="1022.4414" y1="353.979" x2="1773.21" y2="353.979">
		<stop  offset="0" style="stop-color:#FFAAFA"/>
		<stop  offset="1" style="stop-color:#8AABFF"/>
	</linearGradient>
	<path class="st0" d="M1139.22,530.5c36.15-12.4,62.21-46.74,62.21-87.05c0-50.04-40.15-90.87-89.93-91.97v-0.01l-2.49-0.03
		c-47.74-0.23-86.57-39.25-86.57-86.99c0-47.97,39.03-86.99,86.99-86.99c0.86,0,1.71,0.02,2.57,0.04l483.83,0l1.16,0
		c47.08,0.07,91.34,18.47,124.61,51.79c33.28,33.32,51.6,77.61,51.6,124.71s-18.33,91.38-51.6,124.71
		c-33.27,33.32-77.53,51.71-124.61,51.79l-2.5,0v0.01H1139.22z"/>
	<path class="st1" d="M1109.44,179.96c0.76,0,1.58,0.01,2.5,0.04l0.07,0h0.07h482.6l2.32,0c46.42,0.07,90.05,18.2,122.85,51.05
		c32.8,32.85,50.87,76.51,50.87,122.94s-18.07,90.09-50.87,122.94c-32.8,32.85-76.43,50.98-122.85,51.05l-2.83,0.01h-442.54
		c30.99-15.52,52.31-47.59,52.31-84.55c0-50.57-39.94-92-89.93-94.39v-0.1l-4.98-0.02c-22.48-0.11-43.6-8.94-59.47-24.88
		c-15.87-15.94-24.61-37.11-24.61-59.61C1024.94,217.86,1062.84,179.96,1109.44,179.96 M1109.44,174.96
		c-49.43,0-89.49,40.07-89.49,89.49c0,49.28,39.83,89.25,89.06,89.49v0.02c0.15,0,0.29-0.01,0.44-0.01
		c49.43,0,89.49,40.07,89.49,89.49s-40.07,89.49-89.49,89.49c-0.15,0-0.29,0-0.44-0.01V533h488v-0.01
		c98.73-0.16,178.71-80.23,178.71-178.99S1695.73,175.16,1597,175v0h-484.92C1111.2,174.97,1110.32,174.96,1109.44,174.96
		L1109.44,174.96z"/>
</g>
<g>
	
		<linearGradient id="SVGID_00000124854295705035896520000009453291533518564029_" gradientUnits="userSpaceOnUse" x1="209.4409" y1="353.979" x2="960.21" y2="353.979">
		<stop  offset="0" style="stop-color:#FFAAFA"/>
		<stop  offset="1" style="stop-color:#8AABFF"/>
	</linearGradient>
	<path style="fill:url(#SVGID_00000124854295705035896520000009453291533518564029_);" d="M873.22,530.5
		c-0.86,0-1.72-0.02-2.57-0.04l-483.83,0l-1.16,0c-47.08-0.07-91.34-18.47-124.61-51.79c-33.28-33.32-51.6-77.61-51.6-124.71
		s18.33-91.38,51.6-124.71c33.27-33.32,77.53-51.71,124.61-51.79l2.5,0v-0.01h455.28c-36.15,12.4-62.21,46.74-62.21,87.05
		c0,50.04,40.15,90.87,89.93,91.97v0.01l2.49,0.03c47.73,0.23,86.57,39.25,86.57,86.99C960.21,491.47,921.18,530.5,873.22,530.5z"/>
	<path class="st1" d="M831.03,179.96c-30.99,15.52-52.31,47.59-52.31,84.55c0,50.57,39.94,92,89.93,94.39v0.1l4.98,0.02
		c22.48,0.11,43.6,8.94,59.47,24.88c15.87,15.94,24.61,37.11,24.61,59.61c0,46.59-37.9,84.49-84.49,84.49
		c-0.76,0-1.58-0.01-2.5-0.04l-0.07,0h-0.07h-482.6l-2.32,0c-46.42-0.07-90.05-18.2-122.85-51.05
		c-32.8-32.85-50.87-76.51-50.87-122.94s18.07-90.09,50.87-122.94c32.8-32.85,76.43-50.98,122.85-51.05l2.83-0.01H831.03
		 M873.65,174.96h-488v0.01c-98.73,0.16-178.71,80.23-178.71,178.99s79.99,178.84,178.71,178.99v0h484.92
		c0.88,0.03,1.76,0.04,2.64,0.04c49.43,0,89.49-40.07,89.49-89.49c0-49.28-39.83-89.25-89.06-89.49v-0.02
		c-0.15,0-0.29,0.01-0.44,0.01c-49.43,0-89.49-40.07-89.49-89.49s40.07-89.49,89.49-89.49c0.15,0,0.29,0,0.44,0.01V174.96
		L873.65,174.96z"/>
</g>
</svg>
