<svg
   width="60.000462mm"
   height="60.000465mm"
   viewBox="0 0 60.000462 60.000466"
   version="1.1"
   id="svg5"
   inkscape:version="1.1.2 (0a00cf5339, 2022-02-04)"
   sodipodi:docname="yin-yang.svg"
   xmlns:inkscape="http://www.inkscape.org/namespaces/inkscape"
   xmlns:sodipodi="http://sodipodi.sourceforge.net/DTD/sodipodi-0.dtd"
   xmlns="http://www.w3.org/2000/svg"
   xmlns:svg="http://www.w3.org/2000/svg">
  <sodipodi:namedview
     id="namedview7"
     pagecolor="#505050"
     bordercolor="#ffffff"
     borderopacity="1"
     inkscape:showpageshadow="0"
     inkscape:pageopacity="0"
     inkscape:pagecheckerboard="1"
     inkscape:deskcolor="#505050"
     inkscape:document-units="mm"
     showgrid="false"
     showguides="true"
     inkscape:zoom="2.8284271"
     inkscape:cx="92.807765"
     inkscape:cy="110.83899"
     inkscape:window-width="1836"
     inkscape:window-height="1096"
     inkscape:window-x="40"
     inkscape:window-y="40"
     inkscape:window-maximized="1"
     inkscape:current-layer="layer1"
     inkscape:pageshadow="0"
     inkscape:snap-bbox="true"
     inkscape:bbox-paths="true"
     inkscape:bbox-nodes="true"
     inkscape:snap-bbox-edge-midpoints="true"
     inkscape:snap-bbox-midpoints="true"
     inkscape:object-paths="true"
     inkscape:snap-intersection-paths="true"
     inkscape:snap-smooth-nodes="true"
     inkscape:snap-midpoints="true"
     inkscape:guide-bbox="true"
     inkscape:snap-global="true"
     fit-margin-top="0"
     fit-margin-left="0"
     fit-margin-right="0"
     fit-margin-bottom="0"
     showborder="false">
    <sodipodi:guide
       position="71.093694,-11.093229"
       orientation="-0.70710678,-0.70710678"
       id="guide4352" />
    <sodipodi:guide
       position="30.000232,30.000233"
       orientation="1,0"
       id="guide4363" />
    <sodipodi:guide
       position="29.646076,30.004412"
       orientation="0,-1"
       id="guide4365" />
  </sodipodi:namedview>
  <defs
     id="defs2">
    <linearGradient
       id="linearGradient8165"
       inkscape:swatch="solid">
      <stop
         style="stop-color:#ffffff;stop-opacity:1;"
         offset="0"
         id="stop8163" />
    </linearGradient>
  </defs>
  <g
     inkscape:label="Layer 1"
     inkscape:groupmode="layer"
     id="layer1"
     transform="translate(-17.741828,50.628903)">
    <g
       id="g4268"
       transform="translate(-49.391407,-12.909118)">
      <g
         id="g2185"
         transform="matrix(-1,0,0,1,342.01156,-186.56135)">
        <path
           id="path872"
           style="fill:#ffffff;fill-opacity:1;fill-rule:evenodd;stroke-width:0.182351"
           d="m 286.09908,230.63882 a 25.5,25.5 0 0 0 -25.50024,25.50025 25.5,25.5 0 0 0 24.62951,25.46976 12.750001,12.750001 0 0 1 -11.87938,-12.71964 12.750001,12.750001 0 0 1 12.74961,-12.75012 v 25.49973 -25.50025 a 12.750001,12.750001 0 0 0 12.74961,-12.74961 12.750001,12.750001 0 0 0 -12.74961,-12.75012 z" />
        <path
           id="path876"
           style="fill:#000000;fill-opacity:1;fill-rule:evenodd;stroke-width:0.0684708"
           d="m 286.09858,238.60106 a 4.7874811,4.7874811 0 0 0 -4.78733,4.78753 4.7874811,4.7874811 0 0 0 4.78733,4.78733 4.7874811,4.7874811 0 0 0 4.78733,-4.78733 4.7874811,4.7874811 0 0 0 -4.78733,-4.78753 z" />
      </g>
      <g
         id="g2621"
         transform="matrix(1,0,0,-1,-199.86001,308.17859)"
         inkscape:export-filename="/home/recompiler/Downloads/yin-yang.png"
         inkscape:export-xdpi="1020.1741"
         inkscape:export-ydpi="1020.1741">
        <path
           id="path2179"
           style="fill:#000007;fill-opacity:1;fill-rule:evenodd;stroke-width:0.182351"
           d="m 255.81201,213.10172 a 25.5,25.5 0 0 0 -25.50024,25.50025 25.5,25.5 0 0 0 24.62951,25.46976 12.750001,12.750001 0 0 1 -11.87938,-12.71964 12.750001,12.750001 0 0 1 12.74961,-12.75012 v 25.49973 -25.50025 a 12.750001,12.750001 0 0 0 12.74961,-12.74961 12.750001,12.750001 0 0 0 -12.74961,-12.75012 z" />
        <path
           id="path2181"
           style="fill:#fffffd;fill-opacity:1;fill-rule:evenodd;stroke-width:0.0684708"
           d="m 255.81151,221.06396 a 4.7874811,4.7874811 0 0 0 -4.78733,4.78753 4.7874811,4.7874811 0 0 0 4.78733,4.78733 4.7874811,4.7874811 0 0 0 4.78733,-4.78733 4.7874811,4.7874811 0 0 0 -4.78733,-4.78753 z" />
      </g>
    </g>
    <path
       id="path1063"
       style="fill:#000000;fill-opacity:1;stroke:none;stroke-width:2.88139;stroke-linecap:round;stroke-linejoin:round"
       d="m 183.9625,-45.072118 a 30,30 0 0 0 -29.99972,30.000236 30,30 0 0 0 29.99972,29.999717 z" />
    <circle
       style="fill:#000000;fill-opacity:1;stroke:none;stroke-width:2.8814;stroke-linecap:round;stroke-linejoin:round"
       id="circle2803"
       cx="180.95027"
       cy="59.804943"
       r="30" />
    <path
       id="path2810"
       style="fill:#000000;fill-opacity:1;stroke:none;stroke-width:2.88139;stroke-linecap:round;stroke-linejoin:round"
       d="m -34.764044,-2.0413586 a 14.999999,14.999999 0 0 0 15.000117,-15.0001184 14.999999,14.999999 0 0 0 -15.000117,-14.999602 15,15 0 0 1 -0.980819,-0.03255 15,15 0 0 1 -0.977201,-0.09612 15,15 0 0 1 -0.968417,-0.159681 15,15 0 0 1 -0.956014,-0.223243 15,15 0 0 1 -0.938961,-0.284736 15,15 0 0 1 -0.918806,-0.345715 15,15 0 0 1 -0.894003,-0.405144 15,15 0 0 1 -0.865579,-0.462505 15,15 0 0 1 -0.833543,-0.518313 15,15 0 0 1 -0.797883,-0.572058 15,15 0 0 1 -0.759126,-0.622702 15,15 0 0 1 -0.716235,-0.670759 15,15 0 0 1 -0.670762,-0.716753 15,15 0 0 1 -0.622699,-0.758611 15,15 0 0 1 -0.572058,-0.797883 15,15 0 0 1 -0.518316,-0.833541 15,15 0 0 1 -0.462503,-0.865581 15,15 0 0 1 -0.405143,-0.894001 15,15 0 0 1 -0.345718,-0.918808 15,15 0 0 1 -0.285252,-0.939477 15,15 0 0 1 -0.222727,-0.955498 15,15 0 0 1 -0.159678,-0.968414 15,15 0 0 1 -0.09664,-0.977202 15,15 0 0 1 -0.03204,-0.980818 15,15 0 0 1 0.288353,-2.926437 15,15 0 0 1 0.853697,-2.813783 15,15 0 0 1 1.385962,-2.593639 15,15 0 0 1 1.865519,-2.272731 15,15 0 0 1 2.273244,-1.865519 15,15 0 0 1 2.593125,-1.385962 15,15 0 0 1 2.813781,-0.853694 15,15 0 0 1 2.926437,-0.288353 30,30 0 0 0 -30.000231,29.999715 30,30 0 0 0 30.000236,30.0002364 z" />
    <path
       id="path3219"
       style="fill:#000000;fill-opacity:1;stroke:none;stroke-width:2.88139;stroke-linecap:round;stroke-linejoin:round"
       d="m 133.12088,-52.276867 a 14.999999,14.999999 0 0 0 15.00012,-15.000118 14.999999,14.999999 0 0 0 -15.00012,-14.999602 15,15 0 0 1 -0.98082,-0.03255 15,15 0 0 1 -0.9772,-0.09612 15,15 0 0 1 -0.96842,-0.159681 15,15 0 0 1 -0.95601,-0.223243 15,15 0 0 1 -0.93896,-0.284736 15,15 0 0 1 -0.91881,-0.345715 15,15 0 0 1 -0.894,-0.405144 15,15 0 0 1 -0.86558,-0.462505 15,15 0 0 1 -0.83354,-0.518313 15,15 0 0 1 -0.79789,-0.572058 15,15 0 0 1 -0.75912,-0.622702 15,15 0 0 1 -0.71624,-0.670759 15,15 0 0 1 -0.67076,-0.716753 15,15 0 0 1 -0.6227,-0.758611 15,15 0 0 1 -0.57206,-0.797883 15,15 0 0 1 -0.51831,-0.833541 15,15 0 0 1 -0.46251,-0.865581 15,15 0 0 1 -0.40514,-0.894001 15,15 0 0 1 -0.34572,-0.918808 15,15 0 0 1 -0.28525,-0.939477 15,15 0 0 1 -0.22273,-0.955498 15,15 0 0 1 -0.15967,-0.968414 15,15 0 0 1 -0.0966,-0.977202 15,15 0 0 1 -0.032,-0.980818 15,15 0 0 1 0.28835,-2.92644 15,15 0 0 1 0.8537,-2.81378 15,15 0 0 1 1.38596,-2.59364 15,15 0 0 1 1.86552,-2.27273 15,15 0 0 1 2.27324,-1.86552 15,15 0 0 1 2.59313,-1.38596 15,15 0 0 1 2.81378,-0.85369 15,15 0 0 1 2.92643,-0.28836 30,30 0 0 0 -30.00023,29.999717 30,30 0 0 0 30.00024,30.000236 z" />
    <path
       id="path3221"
       style="fill:#ffffff;fill-opacity:1;stroke:none;stroke-width:2.88139;stroke-linecap:round;stroke-linejoin:round"
       d="m 175.7188,-121.80131 a 14.999999,14.999999 0 0 0 -15.00012,15.00012 14.999999,14.999999 0 0 0 15.00012,14.999603 15,15 0 0 1 0.98082,0.03255 15,15 0 0 1 0.9772,0.09612 15,15 0 0 1 0.96841,0.159681 15,15 0 0 1 0.95602,0.223243 15,15 0 0 1 0.93896,0.284736 15,15 0 0 1 0.91881,0.345715 15,15 0 0 1 0.894,0.405144 15,15 0 0 1 0.86558,0.462505 15,15 0 0 1 0.83354,0.518313 15,15 0 0 1 0.79788,0.572058 15,15 0 0 1 0.75913,0.622702 15,15 0 0 1 0.71623,0.670759 15,15 0 0 1 0.67077,0.716753 15,15 0 0 1 0.62269,0.758611 15,15 0 0 1 0.57206,0.797883 15,15 0 0 1 0.51832,0.833541 15,15 0 0 1 0.4625,0.865581 15,15 0 0 1 0.40514,0.894001 15,15 0 0 1 0.34572,0.918808 15,15 0 0 1 0.28526,0.939477 15,15 0 0 1 0.22272,0.955498 15,15 0 0 1 0.15968,0.968414 15,15 0 0 1 0.0966,0.977202 15,15 0 0 1 0.032,0.980818 15,15 0 0 1 -0.28835,2.926437 15,15 0 0 1 -0.8537,2.813783 15,15 0 0 1 -1.38596,2.593639 15,15 0 0 1 -1.86552,2.272731 15,15 0 0 1 -2.27317,1.865521 15,15 0 0 1 -2.59312,1.385962 15,15 0 0 1 -2.81379,0.853694 15,15 0 0 1 -2.92643,0.288353 30,30 0 0 0 30.00023,-29.999717 30,30 0 0 0 -30.00023,-30.000239 z" />
    <path
       id="path3250"
       style="fill:#000000;fill-opacity:1;stroke:none;stroke-width:2.88139;stroke-linecap:round;stroke-linejoin:round"
       d="m 67.05626,-131.32682 a 14.999999,14.999999 0 0 0 -15.00012,15.00012 14.999999,14.999999 0 0 0 15.00012,14.9996 15,15 0 0 1 0.98082,0.0326 15,15 0 0 1 0.9772,0.0961 15,15 0 0 1 0.96842,0.15968 15,15 0 0 1 0.95601,0.22324 15,15 0 0 1 0.93896,0.28474 15,15 0 0 1 0.91881,0.34572 15,15 0 0 1 0.894,0.405139 15,15 0 0 1 0.86558,0.462505 15,15 0 0 1 0.83354,0.518313 15,15 0 0 1 0.79789,0.572058 15,15 0 0 1 0.75912,0.622702 15,15 0 0 1 0.71624,0.670759 15,15 0 0 1 0.67076,0.716753 15,15 0 0 1 0.6227,0.758611 15,15 0 0 1 0.57206,0.797883 15,15 0 0 1 0.51831,0.833541 15,15 0 0 1 0.46251,0.865581 15,15 0 0 1 0.40514,0.894001 15,15 0 0 1 0.34572,0.918808 15,15 0 0 1 0.28525,0.939477 15,15 0 0 1 0.22273,0.955498 15,15 0 0 1 0.15967,0.968414 15,15 0 0 1 0.0966,0.977202 15,15 0 0 1 0.032,0.980818 15,15 0 0 1 -0.28835,2.92644 15,15 0 0 1 -0.8537,2.81378 15,15 0 0 1 -1.38596,2.59364 15,15 0 0 1 -1.86552,2.27273 15,15 0 0 1 -2.27324,1.86552 15,15 0 0 1 -2.59313,1.38596 15,15 0 0 1 -2.81378,0.85369 15,15 0 0 1 -2.92643,0.28836 30,30 0 0 0 30.00023,-29.999713 30,30 0 0 0 -30.00024,-30.00024 z" />
    <circle
       style="fill:#787a7d;fill-opacity:1;stroke:none;stroke-width:1.4407;stroke-linecap:round;stroke-linejoin:round"
       id="circle2805"
       cx="219.15208"
       cy="-30.072142"
       r="15" />
    <g
       id="g3776"
       inkscape:export-filename="/home/recompiler/Downloads/yin-yang.png"
       inkscape:export-xdpi="866.97998"
       inkscape:export-ydpi="866.97998">
      <g
         id="g4361">
        <g
           id="g3314">
          <path
             id="path2893"
             style="fill:#ffffff;fill-opacity:1;stroke:none;stroke-width:2.88139;stroke-linecap:round;stroke-linejoin:round"
             d="m 47.742059,-50.62839 a 14.999999,14.999999 0 0 0 -15.00012,15.000118 14.999999,14.999999 0 0 0 15.00012,14.999602 15,15 0 0 1 0.98082,0.03255 15,15 0 0 1 0.9772,0.09612 15,15 0 0 1 0.96841,0.159681 15,15 0 0 1 0.95602,0.223243 15,15 0 0 1 0.93896,0.284736 15,15 0 0 1 0.91881,0.345715 15,15 0 0 1 0.894,0.405144 15,15 0 0 1 0.86558,0.462505 15,15 0 0 1 0.83354,0.518313 15,15 0 0 1 0.797881,0.572058 15,15 0 0 1 0.75913,0.622702 15,15 0 0 1 0.71623,0.670759 15,15 0 0 1 0.67077,0.716753 15,15 0 0 1 0.62269,0.758611 15,15 0 0 1 0.57206,0.797883 15,15 0 0 1 0.51832,0.833541 15,15 0 0 1 0.4625,0.865581 15,15 0 0 1 0.40514,0.894001 15,15 0 0 1 0.34572,0.918808 15,15 0 0 1 0.28526,0.939477 15,15 0 0 1 0.22272,0.955498 15,15 0 0 1 0.15968,0.968414 15,15 0 0 1 0.0966,0.977202 15,15 0 0 1 0.032,0.980818 15,15 0 0 1 -0.28835,2.9264372 15,15 0 0 1 -0.8537,2.81378298 15,15 0 0 1 -1.38596,2.59363902 15,15 0 0 1 -1.86552,2.272731 15,15 0 0 1 -2.273171,1.865521 15,15 0 0 1 -2.59312,1.385962 15,15 0 0 1 -2.81379,0.853694 15,15 0 0 1 -2.92643,0.288353 A 30,30 0 0 0 77.74229,-20.628154 30,30 0 0 0 47.742059,-50.62839 Z" />
          <circle
             style="fill:#000000;fill-opacity:1;stroke:none;stroke-width:0.480234;stroke-linecap:round;stroke-linejoin:round"
             id="circle3227"
             cx="47.742058"
             cy="-35.62867"
             r="5" />
        </g>
        <path
           id="path3308"
           style="fill:#000000;fill-opacity:1;stroke:none;stroke-width:2.88139;stroke-linecap:round;stroke-linejoin:round"
           d="m 47.742059,9.3710502 a 14.999999,14.999999 0 0 0 15.00012,-15.000118 14.999999,14.999999 0 0 0 -15.00012,-14.9996022 15,15 0 0 1 -0.98082,-0.03255 15,15 0 0 1 -0.9772,-0.09612 15,15 0 0 1 -0.96841,-0.159681 15,15 0 0 1 -0.95602,-0.223243 15,15 0 0 1 -0.93896,-0.284736 15,15 0 0 1 -0.91881,-0.345715 15,15 0 0 1 -0.894,-0.405144 15,15 0 0 1 -0.86558,-0.462505 15,15 0 0 1 -0.83354,-0.518313 15,15 0 0 1 -0.797881,-0.572058 15,15 0 0 1 -0.75913,-0.622702 15,15 0 0 1 -0.71623,-0.670759 15,15 0 0 1 -0.67077,-0.716753 15,15 0 0 1 -0.62269,-0.758611 15,15 0 0 1 -0.57206,-0.797883 15,15 0 0 1 -0.51832,-0.833541 15,15 0 0 1 -0.4625,-0.865581 15,15 0 0 1 -0.40514,-0.894001 15,15 0 0 1 -0.34572,-0.918808 15,15 0 0 1 -0.28526,-0.939477 15,15 0 0 1 -0.22272,-0.955498 15,15 0 0 1 -0.15968,-0.968414 15,15 0 0 1 -0.0966,-0.977202 15,15 0 0 1 -0.032,-0.980818 15,15 0 0 1 0.28835,-2.926437 15,15 0 0 1 0.8537,-2.813783 15,15 0 0 1 1.38596,-2.593639 15,15 0 0 1 1.86552,-2.272731 15,15 0 0 1 2.273171,-1.865521 15,15 0 0 1 2.59312,-1.385962 15,15 0 0 1 2.81379,-0.853694 15,15 0 0 1 2.92643,-0.288353 30,30 0 0 0 -30.000231,29.999717 30,30 0 0 0 30.000231,30.0002362 z" />
        <circle
           style="fill:#ffffff;fill-opacity:1;stroke:none;stroke-width:0.480234;stroke-linecap:round;stroke-linejoin:round"
           id="circle3310"
           cx="-47.742062"
           cy="5.6286702"
           r="5"
           transform="scale(-1)" />
      </g>
    </g>
    <circle
       style="fill:#787a7d;fill-opacity:1;stroke:none;stroke-width:1.4407;stroke-linecap:round;stroke-linejoin:round"
       id="circle4367"
       cx="212.19167"
       cy="-0.072141647"
       r="15" />
  </g>
</svg>
